HIERARCHY
ROOT Hips
{
    OFFSET 0.0 0.0 0.0
    CHANNELS 6 Xposition Yposition Zposition Zrotation Xrotation Yrotation
    JOINT LHipJoint
    {
        OFFSET 0.1 0.0 0.0
        CHANNELS 3 Zrotation Xrotation Yrotation
        JOINT LeftHip
        {
            OFFSET 0.08493848145008087 0.0 0.0
            CHANNELS 3 Zrotation Xrotation Yrotation
            JOINT LeftKnee
            {
                OFFSET 0.0 0.0 -0.5302759408950806
                CHANNELS 3 Zrotation Xrotation Yrotation
                JOINT LeftAnkle
                {
                    OFFSET 0.0 0.0 -0.4254474937915802
                    CHANNELS 3 Zrotation Xrotation Yrotation
                    End Site
                    {
                        OFFSET 0.0 -0.1 0.0
                    }
                }
            }
        }
    }
    JOINT lowerback
    {
        OFFSET 0.0 0.0 0.1
        CHANNELS 3 Zrotation Xrotation Yrotation
        JOINT Chest
        {
            OFFSET 0.0 0.0 0.24130259454250336
            CHANNELS 3 Zrotation Xrotation Yrotation
            JOINT Chest2
            {
                OFFSET 0.0 0.0 0.2771230936050415
                CHANNELS 3 Zrotation Xrotation Yrotation
                JOINT LeftCollar
                {
                    OFFSET 0.1 0.0 0.0
                    CHANNELS 3 Zrotation Xrotation Yrotation
                    JOINT LeftShoulder
                    {
                        OFFSET 0.11404712498188019 0.0 0.0
                        CHANNELS 3 Zrotation Xrotation Yrotation
                        JOINT LeftElbow
                        {
                            OFFSET 0.18773379921913147 0.0 0.0
                            CHANNELS 3 Zrotation Xrotation Yrotation
                            JOINT LeftWrist
                            {
                                OFFSET 0.22884762287139893 0.0 0.0
                                CHANNELS 3 Zrotation Xrotation Yrotation
                                End Site
                                {
                                    OFFSET 0.1 0.0 0.0
                                }
                            }
                        }
                    }
                }
                JOINT Neck
                {
                    OFFSET 0.0 0.0 0.1
                    CHANNELS 3 Zrotation Xrotation Yrotation
                    JOINT Head
                    {
                        OFFSET 0.0 0.0 0.12253253906965256
                        CHANNELS 3 Zrotation Xrotation Yrotation
                        End Site
                        {
                            OFFSET 0.0 0.0 0.16058757901191711
                        }
                    }
                }
                JOINT RightCollar
                {
                    OFFSET -0.1 0.0 0.0
                    CHANNELS 3 Zrotation Xrotation Yrotation
                    JOINT RightShoulder
                    {
                        OFFSET -0.11404712498188019 0.0 0.0
                        CHANNELS 3 Zrotation Xrotation Yrotation
                        JOINT RightElbow
                        {
                            OFFSET -0.18773379921913147 0.0 0.0
                            CHANNELS 3 Zrotation Xrotation Yrotation
                            JOINT RightWrist
                            {
                                OFFSET -0.22884762287139893 0.0 0.0
                                CHANNELS 3 Zrotation Xrotation Yrotation
                                End Site
                                {
                                    OFFSET -0.1 0.0 0.0
                                }
                            }
                        }
                    }
                }
            }
        }
    }
    JOINT RHipJoint
    {
        OFFSET -0.1 0.0 0.0
        CHANNELS 3 Zrotation Xrotation Yrotation
        JOINT RightHip
        {
            OFFSET -0.08493848145008087 0.0 0.0
            CHANNELS 3 Zrotation Xrotation Yrotation
            JOINT RightKnee
            {
                OFFSET 0.0 0.0 -0.5302759408950806
                CHANNELS 3 Zrotation Xrotation Yrotation
                JOINT RightAnkle
                {
                    OFFSET 0.0 0.0 -0.4254474937915802
                    CHANNELS 3 Zrotation Xrotation Yrotation
                    End Site
                    {
                        OFFSET 0.0 -0.1 0.0
                    }
                }
            }
        }
    }
}
MOTION
Frames: 4
Frame Time: 0.03333333333333333
-5.758920451626182e-06 0.9423647522926331 -2.8185451810713857e-05 -122.29826471501269 -71.03960847554355 -118.2857270343375 -1.5902773407317584e-15 0.0 0.0 -1.0716570284850195 -9.537603577508222 -11.24982321947586 -0.7086276669088548 8.415142193690437 10.529632208818214 0.0 0.0 0.0 -1.5902773407317584e-15 0.0 0.0 -0.2990049753988609 -2.64484590244295 -0.2102810302358785 -3.4030347321310903 -1.1655505843219525e-07 1.9019087653413984e-06 3.1805546814635168e-15 -4.4139062980501586e-32 -1.5902773407317584e-15 -81.9836681414026 -10.139738023757877 79.35660635593497 -129.23216092115248 4.329825065308492e-08 -6.520162399531302e-07 -6.3611093629270335e-15 1.7655625192200634e-31 -3.1805546814635168e-15 3.1805546814635168e-15 -4.4139062980501586e-32 -1.5902773407317584e-15 7.255048441633124 -0.25473256874094985 0.7540098766948637 3.1805546814635168e-15 -4.4139062980501586e-32 -1.5902773407317584e-15 -33.44209485056594 -7.21008404705466 -66.78034991615375 147.14343405373307 -2.7563991901233325e-06 -1.9281098295087273e-06 -7.752602036067322e-15 -2.1517793202994523e-31 3.1805546814635168e-15 -1.5902773407317584e-15 0.0 0.0 -0.821031468821731 -7.1143235038086905 0.7652945212762232 0.41330111422812077 3.211498372666918 -6.775755625693255 -7.951386703658791e-16 -1.1034765745125397e-32 1.5902773407317582e-15
-4.666690074373037e-06 0.9423640966415405 -2.7164394850842655e-05 -122.30564423127016 -71.04065547486498 -118.43260249067325 0.0 -6.361109362927033e-15 0.0 -1.1389218752767079 -10.050217075550584 -11.39959217681172 -0.7729539754710606 9.002085457191063 10.480860823104665 0.0 6.361109362927033e-15 0.0 0.0 -6.361109362927033e-15 0.0 -0.2781432274311731 -2.4412795324761425 -0.0539226042179551 -3.0297220737127377 5.007098518772084e-06 7.482581048344195e-07 1.5902773407317584e-15 -1.987846675914698e-16 2.758691436281349e-33 -81.96911301121422 -9.509302548405877 80.0971001458702 -129.94267949735953 3.7618253557581566e-06 1.7212386874403775e-06 -6.3611093629270335e-15 -1.5902773407317584e-15 3.1805546814635168e-15 1.5902773407317584e-15 -1.987846675914698e-16 2.758691436281349e-33 6.543872177755952 -0.5036024129850593 1.23597870729117 1.5902773407317584e-15 -1.987846675914698e-16 2.758691436281349e-33 -33.626871494344535 -7.760961891290035 -67.02630488937771 147.91900410463919 -2.0219651397305512e-07 2.4525166164192342e-06 2.1866313435061676e-15 -6.069121159818968e-32 -3.1805546814635168e-15 0.0 -6.361109362927033e-15 0.0 -0.8772412097013478 -7.533186483790421 1.2774268046910986 0.4636719389944598 3.3398386886508913 -7.010297939497878 -8.827812596100317e-32 6.361109362927032e-15 1.590277340731758e-15
-6.935320925549604e-06 0.9423643350601196 -2.8040572942700237e-05 -123.76835676911566 -71.40455422458675 -120.03109311270869 -8.827812596100317e-32 -6.361109362927033e-15 -1.5902773407317582e-15 -1.1449918224282636 -10.045143596121992 -11.60208112933137 -0.8233171231606368 9.270875325553092 10.724263207024077 1.5902773407317588e-15 6.559894030518505e-15 -9.103681739728452e-32 -8.827812596100317e-32 -6.361109362927033e-15 -1.5902773407317582e-15 -0.24237504832803136 -2.1148324056769208 0.3437090788353487 -2.516181342201398 3.8372214713048556e-06 1.5724860677163776e-06 -1.5902773407317584e-15 6.3611093629270335e-15 1.5902773407317584e-15 -82.63975541044678 -8.320291264195 80.71234053259487 -131.3624556995196 1.9971352467708026e-06 1.3700907830291972e-06 6.3611093629270335e-15 1.7655625192200634e-31 3.1805546814635168e-15 -1.5902773407317584e-15 6.3611093629270335e-15 1.5902773407317584e-15 5.209738960306331 -0.6900610861325064 1.6171503791508568 -1.5902773407317584e-15 6.3611093629270335e-15 1.5902773407317584e-15 -33.13835108966062 -7.68186274953656 -67.59218428192712 149.25293536869472 -3.0496399667820053e-06 -1.7934173343987105e-06 5.565970692561156e-15 -1.5448672043175555e-31 -3.1805546814635176e-15 -8.827812596100317e-32 -6.361109362927033e-15 -1.5902773407317582e-15 -0.8603688131958167 -7.342503017892672 1.8755948774832487 0.4680791588869221 3.1176373237624344 -7.446252652596411 1.5902773407317584e-15 6.361109362927035e-15 3.1805546814635176e-15
-6.6842858359450474e-06 0.9423641562461853 -2.7983449399471283e-05 -125.02179536383856 -72.06024029936289 -121.16040497198033 0.0 0.0 -1.5902773407317582e-15 -1.2300262396759865 -10.632421379683866 -11.507220169287386 -0.8105319643731984 9.489464170101122 10.571331434245813 0.0 0.0 0.0 0.0 0.0 -1.5902773407317582e-15 -0.2656874417514079 -2.28819574579686 0.2663726520360833 -2.566671007548095 -1.6154793109632191e-06 2.1838044207164307e-06 -1.5902773407317584e-15 -1.987846675914698e-16 -2.758691436281349e-33 -82.93343797043721 -8.745935425011705 80.71807428693393 -131.01408159186954 1.1271888640249644e-06 8.974380114835792e-07 6.3611093629270335e-15 1.5902773407317584e-15 -8.827812596100317e-32 -1.5902773407317584e-15 -1.987846675914698e-16 -2.758691436281349e-33 5.605896547002248 0.2846271082574273 1.2410539845835293 -1.5902773407317584e-15 -1.987846675914698e-16 -2.758691436281349e-33 -33.691713764283 -7.157628462068794 -67.88243892024177 149.27773169445516 -3.631412475454393e-06 2.0526894746396916e-06 -8.74652537402467e-15 -2.427648463927587e-31 3.1805546814635168e-15 0.0 0.0 -1.5902773407317582e-15 -0.8570061009076537 -7.222532129790113 1.8128369806607514 0.4648788671700339 3.08879967259844 -7.155554808261808 7.951386703658791e-16 1.9878466759146977e-16 -1.3793457181406746e-33
